# xmcd
#
# Track frame offsets:
#	150
#	23392
#	48872
#	72312
#	96772
#	125672
#	146272
#	171097
#	194030
#	214312
#	231392
#
# Disc length: 3361 seconds
#
# Revision: 2
# Processed by: cddbd v1.5.2PL0 Copyright (c) Steve Scherf et al.
# Submitted via: EZCDAudioConverter 8.0.2.1
#
DISCID=9d0d1f0b
DTITLE=Thanh Tuyền, Hương Lan - Bông Cỏ May
DYEAR=1990
DGENRE=World Pop
TTITLE0=Hương Lan - Bông Cỏ May
TTITLE1=Thanh Tuyền - Sáu tháng quân trường
TTITLE2=Hương Lan - Rừng lá thấp
TTITLE3=Thanh Tuyền - Chiếc áo quê hương
TTITLE4=Hương Lan - Người ở lại Charlie
TTITLE5=Thanh Tuyền - Đa tạ
TTITLE6=Hương Lan - Dấu chân kỷ niệm
TTITLE7=Thanh Tuyền - Muôn dặm tình anh
TTITLE8=Hương Lan - Trên bốn vùng chiến thuật
TTITLE9=Thanh Tuyền - Quê hương tìm giấc ngủ
TTITLE10=Hương Lan - 24 giờ phép
EXTD=
EXTT0=
EXTT1=
EXTT2=
EXTT3=
EXTT4=
EXTT5=
EXTT6=
EXTT7=
EXTT8=
EXTT9=
EXTT10=
PLAYORDER=
